# xmcd CD database file
#
# Track frame offsets:
#	150
#	15838
#	29006
#	45487
#	60317
#	79187
#	95798
#	109605
#	125955
#	142981
#
# Disc length: 2016 seconds
#
# Revision: 0
# Processed by: cddbd v1.5.1PL0 Copyright (c) Steve Scherf et al.
# Submitted via: CDex 1.51
#
DISCID=7e07de0a
DTITLE=Elaine Silver  - Echoes of Light
DYEAR=1992
DGENRE=New Age
TTITLE0=Standing in the Possibility
TTITLE1=Sister Moon Brother Sun
TTITLE2=Blue Ridge Mountain Song
TTITLE3=Like an Eagle Soaring High
TTITLE4=Let There Be Peace
TTITLE5=Paradise in Troubled Waters
TTITLE6=Here Come the Tears
TTITLE7=Stormwinds
TTITLE8=Love Is All Around
TTITLE9=I Will
EXTD=YEAR: 1992
EXTT0=
EXTT1=
EXTT2=
EXTT3=
EXTT4=
EXTT5=
EXTT6=
EXTT7=
EXTT8=
EXTT9=
PLAYORDER=
